<svg width="56.000000" height="56.000000" viewBox="0 0 56 56" fill="none" xmlns="http://www.w3.org/2000/svg" xmlns:xlink="http://www.w3.org/1999/xlink">
	<desc>
			Created with Pixso.
	</desc>
	<defs>
		<clipPath id="clip2004_367">
			<rect id="parrot 1" rx="-0.500000" width="55.000000" height="55.000000" transform="translate(0.500000 0.500000)" fill="white" fill-opacity="0"/>
		</clipPath>
	</defs>
	<rect id="parrot 1" rx="-0.500000" width="55.000000" height="55.000000" transform="translate(0.500000 0.500000)" fill="#FFFFFF" fill-opacity="0"/>
	<g clip-path="url(#clip2004_367)">
		<path id="Vector" d="M33.19 39.72C33.47 39.64 35.7 38.98 37.61 40.77C38.33 41.44 38.77 42.25 39.05 42.95C39.33 43.68 38.77 44.46 38 44.46L29.7 44.46C28.94 44.46 28.4 43.72 28.64 42.99L29.32 40.86C30.61 40.48 31.9 40.1 33.19 39.72Z" fill="#F7BC23" fill-opacity="1.000000" fill-rule="nonzero"/>
		<g opacity="0.090000">
			<path id="Vector" d="M36.5 42.88C36.33 42.32 36.61 41.72 37.15 41.51C37.45 41.39 37.76 41.26 37.98 41.15C37.86 41.02 37.74 40.89 37.6 40.76C35.7 38.97 33.48 39.63 33.2 39.72C31.92 40.1 30.65 40.47 29.37 40.85C29.35 40.85 29.34 40.85 29.32 40.86L28.64 43C28.4 43.71 28.94 44.45 29.7 44.45L35.58 44.45C36.71 44.45 36.7 43.6 36.5 42.88Z" fill="#000000" fill-opacity="1.000000" fill-rule="nonzero"/>
		</g>
		<path id="Vector" d="M34.13 44.45L25.85 44.45C25.09 44.45 24.56 43.72 24.79 42.99L24.99 42.35L25.47 40.87C26.77 40.49 28.05 40.11 29.34 39.73C29.62 39.64 31.84 38.98 33.74 40.77C34.22 41.22 34.58 41.73 34.84 42.22C34.98 42.47 35.09 42.72 35.18 42.96C35.49 43.77 35 44.45 34.13 44.45Z" fill="#FFD731" fill-opacity="1.000000" fill-rule="nonzero"/>
		<g opacity="0.090000">
			<path id="Vector" d="M33.74 40.77C31.84 38.98 29.62 39.64 29.34 39.73C28.24 40.05 27.14 40.38 26.03 40.7C26.03 40.7 26.03 40.7 26.03 40.7C25.85 40.75 25.66 40.81 25.47 40.87L24.99 42.35L24.79 42.99C24.56 43.72 25.09 44.45 25.85 44.45L27.33 44.45C26.52 44.27 26.35 43.59 26.35 43.09C26.35 42.79 26.61 42.55 26.92 42.58C27.62 42.65 28.92 42.75 29.97 42.75C31.72 42.75 33.34 42.58 34.84 42.22C34.58 41.73 34.22 41.22 33.74 40.77Z" fill="#000000" fill-opacity="1.000000" fill-rule="nonzero"/>
		</g>
		<path id="Vector" d="M16.65 38.59C9.45 47.77 2.96 53.96 3.97 55.35C6.47 58.78 21.65 47.96 27.62 37.88C24.62 38.17 19.66 38.3 16.65 38.59Z" fill="#F72121" fill-opacity="1.000000" fill-rule="nonzero"/>
		<g opacity="0.090000">
			<path id="Vector" d="M26.23 37.98C25.96 38.38 25.65 38.76 25.35 39.15C24.91 39.34 24.47 39.51 24.05 39.63C23.1 39.9 22.22 39.99 21.45 39.89C20.35 39.74 19.67 39.13 19.35 38.39C18.36 38.44 17.44 38.51 16.65 38.59C14.97 40.74 13.32 42.72 11.81 44.53C13.89 44.49 16.65 42.25 17.15 41.66C16.98 42.63 16.87 43.84 17.71 44.41C17.84 44.52 18.38 44.66 19 44.72C19.49 44.77 19.68 45.36 19.32 45.69C13.3 51.21 6.56 55.08 4.36 53.69C3.9 54.47 3.74 55.03 3.97 55.34C5.97 58.1 16.21 51.64 23.23 43.75C24.91 41.87 26.41 39.9 27.57 37.96C27.59 37.93 27.6 37.91 27.62 37.87C27.2 37.92 26.73 37.95 26.23 37.98Z" fill="#000000" fill-opacity="1.000000" fill-rule="nonzero"/>
		</g>
		<path id="Vector" d="M16.69 37.13C7.42 45.46 2.38 46.78 3.73 48.25C5.93 50.64 19.32 45.51 26.09 37.48C23.95 37.4 21.8 37.32 19.66 37.24C18.67 37.2 17.68 37.16 16.69 37.13Z" fill="#20ABD1" fill-opacity="1.000000" fill-rule="nonzero"/>
		<g opacity="0.090000">
			<path id="Vector" d="M26.09 37.48C19.32 45.51 5.94 50.64 3.72 48.24C3.31 47.8 3.5 47.36 4.23 46.75C7.24 48.08 17.81 43.95 24.45 37.41C25 37.44 25.54 37.46 26.09 37.48Z" fill="#000000" fill-opacity="1.000000" fill-rule="nonzero"/>
		</g>
		<path id="Vector" d="M49.68 15.14C48.65 16.42 46.35 17.75 44.15 17.93C41 16.85 38.29 14.3 38.78 12.2C39.22 10.32 41.29 9.44 41.84 9.24C43.69 8.55 46.27 8.77 47.82 10.57C49.19 12.18 49.73 14.72 49.68 15.14Z" fill="#F7BC23" fill-opacity="1.000000" fill-rule="nonzero"/>
		<g opacity="0.090000">
			<path id="Vector" d="M49.69 15.15C49.33 15.59 48.81 16.05 48.18 16.46C47.11 15.15 45.36 13.36 41.95 12.13C41.62 12.02 42.6 10.21 43.92 8.87C45.32 8.87 46.78 9.39 47.82 10.58C49.19 12.18 49.73 14.72 49.69 15.15Z" fill="#000000" fill-opacity="1.000000" fill-rule="nonzero"/>
		</g>
		<path id="Vector" d="M50.99 17.1C49.87 17.24 49.05 13.25 42.99 11.09C42.49 10.91 45.17 6.55 47.39 6.39C54.72 9.64 52.39 16.94 50.99 17.1Z" fill="#FFD731" fill-opacity="1.000000" fill-rule="nonzero"/>
		<path id="Vector" d="M34.76 1.18C40.75 -2.04 45.69 2.03 46.91 4.68C47.29 5.5 47.4 6.39 47.4 6.39C45.71 7.64 41.67 12.55 44.15 17.93C44.94 19.99 47.09 28.34 42.98 35.1C36.16 44.97 22.92 40.13 19.77 39.98C27.85 29.25 23.38 29.41 27.08 18.23C28.45 14.08 28.75 4.41 34.76 1.18Z" fill="#F72121" fill-opacity="1.000000" fill-rule="nonzero"/>
		<path id="Vector" d="M44.15 17.93C42.24 13.8 44.19 9.93 45.96 7.81C45.64 3.09 39.82 1.68 37.5 4.72C35.15 7.81 36.83 15.35 44.15 17.93Z" fill="#F4F4F4" fill-opacity="1.000000" fill-rule="nonzero"/>
		<path id="Vector" d="M42.8 6.92C42.8 7.65 42.21 8.25 41.47 8.25C40.74 8.25 40.15 7.65 40.15 6.92C40.15 6.19 40.74 5.6 41.47 5.6C42.21 5.6 42.8 6.19 42.8 6.92Z" fill="#1D1E1E" fill-opacity="1.000000" fill-rule="evenodd"/>
		<g opacity="0.090000">
			<path id="Vector" d="M47.39 6.39C47.39 6.39 47.28 5.5 46.91 4.68C45.91 2.52 42.44 -0.6 37.94 0.1C41.19 0.59 43.6 2.93 44.39 4.68C44.78 5.55 44.58 6.56 43.93 7.25C42.07 9.21 39.55 13.41 41.64 17.93C42.21 19.43 43.5 24.3 42.55 29.44C41.91 32.9 39.51 35.87 36.19 37.04C36.04 37.09 35.9 37.14 35.75 37.19C34.74 37.51 33.89 36.38 34.48 35.5C36.2 32.88 37.57 29.8 38.22 26.32C38.46 25.02 37.72 23.72 36.49 23.23L27.48 19.62C27.21 19.59 26.92 19.6 26.63 19.65C23.95 28.78 27.02 29.66 21.13 38.1C20.72 38.69 20.28 39.3 19.77 39.98C22.93 40.13 36.16 44.97 42.98 35.11C45.2 31.46 45.59 27.33 45.36 24C45.36 24 45.37 23.98 45.37 23.97C45.16 21.13 44.51 18.87 44.16 17.93C41.67 12.55 45.71 7.64 47.39 6.39Z" fill="#000000" fill-opacity="1.000000" fill-rule="nonzero"/>
		</g>
		<path id="Vector" d="M27.48 16.73C21.52 16.01 10.15 37.78 11.63 40.71C13.21 43.85 18.23 39.84 18.93 39.03C18.71 40.25 18.59 41.88 20.39 42.12C25.6 42.81 37.32 34.47 38.53 21.15L27.48 16.73Z" fill="#F72121" fill-opacity="1.000000" fill-rule="nonzero"/>
		<path id="Vector" d="M11.64 40.71C13.21 43.85 18.23 39.84 18.92 39.02C18.71 40.25 18.59 41.88 20.39 42.12C25.28 42.77 35.88 35.48 38.18 23.58C33.96 29.82 27.84 33.31 24.53 32.34C23.05 31.9 22.59 30.96 22.8 29.75C21.69 31.67 15.63 33.08 15.52 29.54C12.79 34.56 10.98 39.44 11.64 40.71Z" fill="#63E763" fill-opacity="1.000000" fill-rule="nonzero"/>
		<path id="Vector" d="M11.64 40.71C13.21 43.85 18.23 39.84 18.92 39.02C18.71 40.25 18.59 41.88 20.39 42.12C24.91 42.72 34.35 36.5 37.55 26.13C33.42 33.62 27 37.76 23.22 37.26C21.43 37.01 20.73 35.52 20.94 34.29C19.6 35.75 13.13 37.99 14.27 31.96C12.27 36.05 11.09 39.65 11.64 40.71Z" fill="#30C3E5" fill-opacity="1.000000" fill-rule="nonzero"/>
		<g opacity="0.090000">
			<path id="Vector" d="M32.7 35.02C28.61 39.89 23.41 42.52 20.4 42.12C18.6 41.88 18.71 40.25 18.93 39.03C18.24 39.83 13.22 43.85 11.63 40.72C10.39 38.25 18.19 22.53 24.25 17.96C19 24.32 13.81 35.46 14.84 37.5C15.93 39.66 18.63 38.44 20.45 37.2C21.05 36.79 21.91 37.05 22.12 37.75C22.29 38.33 22.71 38.79 23.6 38.9C25.86 39.21 29.37 37.79 32.7 35.02Z" fill="#000000" fill-opacity="1.000000" fill-rule="nonzero"/>
		</g>
	</g>
</svg>
