<svg width="56.000000" height="56.000000" viewBox="0 0 56 56" fill="none" xmlns="http://www.w3.org/2000/svg" xmlns:xlink="http://www.w3.org/1999/xlink">
	<desc>
			Created with Pixso.
	</desc>
	<defs>
		<clipPath id="clip2004_146">
			<rect id="cat 1" rx="-0.500000" width="55.000000" height="55.000000" transform="translate(0.500000 0.500000)" fill="white" fill-opacity="0"/>
		</clipPath>
	</defs>
	<rect id="cat 1" rx="-0.500000" width="55.000000" height="55.000000" transform="translate(0.500000 0.500000)" fill="#FFFFFF" fill-opacity="0"/>
	<g clip-path="url(#clip2004_146)">
		<path id="Vector" d="M44.63 51.44C42.41 51.42 40.07 50.62 38.05 49.09C36.94 48.24 36.73 46.66 37.57 45.56C38.42 44.45 40 44.24 41.1 45.08C42.84 46.41 44.95 46.8 46.22 46.03C48.24 44.81 48.71 42.4 47.37 40.16C47.05 39.63 46.51 38.9 45.95 38.14C43.84 35.3 40.96 31.4 41.67 27.49C42.02 25.54 43.18 23.91 45.11 22.66C47.25 21.26 49.73 21.14 51.91 22.34C54.37 23.68 56.01 26.48 56 29.31C55.99 30.7 54.85 31.82 53.46 31.81C52.08 31.81 50.96 30.67 50.96 29.28C50.97 28.3 50.35 27.19 49.5 26.75C48.39 26.18 46.8 26.92 46.62 28.38C46.42 30.17 48.53 33.16 50 35.15C50.63 36.01 51.24 36.83 51.68 37.57C54.46 42.19 53.23 47.68 48.82 50.34C47.59 51.09 46.14 51.45 44.63 51.44Z" fill="#FF9D2D" fill-opacity="1.000000" fill-rule="nonzero"/>
		<g opacity="0.090000">
			<path id="Vector" d="M48.82 50.34C47.59 51.08 46.13 51.45 44.62 51.44C42.42 51.43 40.06 50.62 38.05 49.09C37.41 48.6 37.08 47.87 37.06 47.14L37.08 47.16C39.1 48.7 41.44 49.49 43.66 49.51C45.17 49.51 46.62 49.16 47.86 48.41C51.73 46.07 53.15 41.54 51.53 37.34C51.59 37.42 51.63 37.5 51.68 37.56C54.46 42.19 53.22 47.68 48.82 50.34Z" fill="#000000" fill-opacity="1.000000" fill-rule="nonzero"/>
		</g>
		<path id="Vector" d="M42.8 47.02C42.81 47.5 42.81 47.98 42.81 48.47C42.81 51.74 40.42 54.85 36.03 54.85L10.61 54.85C8.41 54.85 7.01 54.85 7.01 54.85C5.77 54.85 4.91 53.65 5.31 52.53C5.8 51.21 7.33 50.82 7.92 49.18C10.34 42.42 9.48 31.28 8.29 26.42C8.11 26 7.45 25.6 7.24 25.21C3.18 17.89 19.39 21.48 24.18 21.48C28.24 21.48 31.99 23.74 35.03 27.15C38.09 30.55 40.45 35.09 41.73 39.64C42.28 41.42 42.56 43 42.68 44.55C42.76 45.33 42.81 46.09 42.81 46.83C42.81 46.89 42.8 46.95 42.8 47.02Z" fill="#FF9D2D" fill-opacity="1.000000" fill-rule="nonzero"/>
		<path id="Vector" d="M31.79 46.99C30.96 48.1 27.53 47.79 24.94 48.65C22.19 49.56 21 51.43 20.78 53.62C20.72 54.27 21.26 54.84 21.94 54.84L36.03 54.84C40.43 54.84 42.81 51.74 42.81 48.47C42.81 45.51 42.74 42.9 41.74 39.64L31.79 46.99Z" fill="#FF9D2D" fill-opacity="1.000000" fill-rule="nonzero"/>
		<path id="Vector" d="M42.39 42.49C41.26 42.78 40 42.94 38.63 42.86C36.49 42.74 34.04 42.01 34.08 41.43C34.09 40.96 35.73 40.85 37.63 40.34C38.73 40.05 40.06 39.58 41.5 38.84C41.88 40.06 42.18 41.28 42.39 42.49Z" fill="#EA6307" fill-opacity="1.000000" fill-rule="nonzero"/>
		<path id="Vector" d="M40.51 36.06C39.36 36.65 38 37.11 36.46 37.3C34.33 37.57 31.8 37.29 31.73 36.72C31.66 36.26 33.25 35.84 35.02 35C36.14 34.47 37.45 33.71 38.86 32.6C39.48 33.72 40.03 34.87 40.51 36.06Z" fill="#EA6307" fill-opacity="1.000000" fill-rule="nonzero"/>
		<path id="Vector" d="M37.2 29.91C36.43 30.58 35.53 31.21 34.46 31.73C32.52 32.66 30.03 33.2 29.78 32.69C29.56 32.27 30.93 31.38 32.34 30.01C33.13 29.24 34.02 28.26 34.88 26.97C35.71 27.87 36.48 28.86 37.2 29.91Z" fill="#EA6307" fill-opacity="1.000000" fill-rule="nonzero"/>
		<g opacity="0.090000">
			<path id="Vector" d="M42.79 47.01C42.8 47.49 42.8 47.98 42.8 48.47C42.8 51.75 40.42 54.84 36.03 54.84L32.03 54.84C36.42 54.84 38.81 51.75 38.81 48.47C38.81 47.98 38.8 47.49 38.8 47.01C38.8 46.96 38.81 46.89 38.81 46.82C38.81 46.08 38.76 45.33 38.68 44.56C38.56 43 38.3 41.41 37.75 39.62L37.74 39.63C35.17 30.55 28.29 21.48 20.18 21.48C18.21 21.48 14.35 20.88 10.74 20.66C15.02 20.32 21.45 21.48 24.18 21.48C32.29 21.48 39.17 30.55 41.73 39.63C42.28 41.42 42.56 43 42.69 44.56C42.77 45.33 42.8 46.08 42.8 46.82C42.8 46.89 42.8 46.96 42.79 47.01Z" fill="#000000" fill-opacity="1.000000" fill-rule="nonzero"/>
		</g>
		<path id="Vector" d="M22.55 37.42C22.55 45.22 21.39 50.76 21.03 52.23C20.69 53.68 19.66 54.84 18.17 54.84L12.75 54.85C11.51 54.85 10.64 53.65 11.05 52.52C11.54 51.2 13.01 50.8 13.66 49.18C14.52 46.98 14.92 43.93 15.03 40.73C15.05 40.05 15.06 39.36 15.05 38.66L22.55 37.42Z" fill="#FF9D2D" fill-opacity="1.000000" fill-rule="nonzero"/>
		<path id="Vector" d="M15.73 38.66C15.73 39.36 15.71 40.06 15.69 40.76C15.58 44.35 15.1 47.34 14.28 49.43C13.89 50.42 13.25 51 12.68 51.52C12.24 51.94 11.86 52.28 11.67 52.76C11.47 53.29 11.55 53.88 11.86 54.35C12.03 54.59 12.24 54.76 12.46 54.85L10.61 54.85C10.16 54.06 10.09 53.12 10.42 52.28C10.72 51.51 11.26 51.02 11.77 50.54C12.28 50.08 12.75 49.64 13.03 48.93C13.79 47 14.25 44.15 14.36 40.71C14.37 40.04 14.38 39.36 14.38 38.67C14.37 38.29 14.67 37.99 15.04 37.99L15.05 37.99C15.42 37.99 15.71 38.29 15.73 38.66ZM32.19 46.45C31.9 46.23 31.47 46.29 31.25 46.58C30.94 47 29.55 47.17 28.31 47.33C27.17 47.47 25.88 47.63 24.73 48.02C23.77 48.33 22.96 48.78 22.29 49.33C22.74 46.65 23.22 42.54 23.22 37.43C23.22 37.05 22.93 36.76 22.55 36.76C22.18 36.76 21.87 37.05 21.87 37.43C21.87 45.41 20.63 51.03 20.39 52.08C20.09 53.28 19.38 54.54 18.55 54.85L21.48 54.85C21.44 54.62 21.4 54.2 21.45 53.68C21.66 51.51 22.91 50.03 25.16 49.29C26.18 48.94 27.35 48.8 28.48 48.66C30.2 48.45 31.68 48.26 32.33 47.39C32.55 47.1 32.49 46.67 32.19 46.45Z" fill="#EA6307" fill-opacity="1.000000" fill-rule="nonzero"/>
		<path id="Vector" d="M33.64 1.49C32.18 0.13 25.69 3.13 23.17 4.42C21.29 3.62 19.21 3.18 17.04 3.18C14.86 3.18 12.79 3.62 10.9 4.42C8.38 3.14 1.9 0.13 0.44 1.49C-1.06 2.88 1.65 9.92 2.68 12.35C1.74 14.38 1.19 16.64 1.19 19.03C1.19 27.78 8.29 30.37 17.04 30.37C25.79 30.37 32.88 27.78 32.88 19.03C32.88 16.64 32.34 14.38 31.39 12.35C32.43 9.92 35.14 2.88 33.64 1.49Z" fill="#FF9D2D" fill-opacity="1.000000" fill-rule="nonzero"/>
		<g opacity="0.090000">
			<path id="Vector" d="M31.39 12.35C32.33 14.38 32.88 16.64 32.88 19.03C32.88 27.78 25.78 30.37 17.03 30.37C10.89 30.37 5.54 29.09 2.92 25.28C6.92 28.08 13.38 28.44 20.16 27.77C25.88 27.2 30.53 22.57 30.56 16.82C30.59 14.72 30.18 12.73 29.46 10.9C29.23 10.35 29.22 9.74 29.43 9.18C30.27 7.1 31.57 3.53 31.75 1.2C32.6 1.09 33.27 1.15 33.63 1.49C35.13 2.88 32.42 9.92 31.39 12.35Z" fill="#000000" fill-opacity="1.000000" fill-rule="nonzero"/>
		</g>
		<path id="Vector" d="M18.52 3.26C18.34 5.29 17.94 7.59 17.03 7.59C16.12 7.59 15.73 5.29 15.55 3.26C16.04 3.21 16.53 3.19 17.03 3.19C17.54 3.19 18.03 3.21 18.52 3.26Z" fill="#EA6307" fill-opacity="1.000000" fill-rule="nonzero"/>
		<path id="Vector" d="M13.48 7.46C12.75 7.73 11.8 6 11.09 4.35C11.88 4.02 12.71 3.76 13.56 3.57C13.94 5.29 14.18 7.18 13.48 7.46Z" fill="#EA6307" fill-opacity="1.000000" fill-rule="nonzero"/>
		<path id="Vector" d="M22.98 4.35C22.28 6 21.33 7.73 20.6 7.46C19.89 7.18 20.12 5.32 20.5 3.58C21.35 3.76 22.19 4.02 22.98 4.35Z" fill="#EA6307" fill-opacity="1.000000" fill-rule="nonzero"/>
		<path id="Vector" d="M5.3 8.39C4.24 9.56 3.35 10.89 2.68 12.33C1.89 10.52 0.21 6.17 0.02 3.48C1.89 3.84 4.33 6 5.3 8.39Z" fill="#F9D4D4" fill-opacity="1.000000" fill-rule="nonzero"/>
		<g opacity="0.090000">
			<path id="Vector" d="M5.3 8.38C4.96 8.75 4.64 9.15 4.35 9.55C3.53 7.7 1.87 6.01 0.3 5.25C0.16 4.61 0.06 4.01 0.03 3.47C1.89 3.84 4.33 6 5.3 8.38Z" fill="#000000" fill-opacity="1.000000" fill-rule="nonzero"/>
		</g>
		<path id="Vector" d="M34.06 3.48C33.86 6.17 32.18 10.52 31.39 12.33C30.72 10.89 29.84 9.56 28.78 8.39C29.74 6 32.19 3.84 34.06 3.48Z" fill="#F9D4D4" fill-opacity="1.000000" fill-rule="nonzero"/>
		<g opacity="0.090000">
			<path id="Vector" d="M28.78 8.38C29.11 8.75 29.44 9.15 29.73 9.55C30.54 7.7 32.21 6.01 33.78 5.25C33.92 4.61 34.01 4.01 34.05 3.47C32.19 3.84 29.74 6 28.78 8.38Z" fill="#000000" fill-opacity="1.000000" fill-rule="nonzero"/>
		</g>
		<path id="Vector" d="M8.73 20.47C8.58 20.47 8.42 20.41 8.29 20.3C8.28 20.29 7.52 19.66 6.43 19.54C5.3 19.42 4.54 19.71 4.53 19.71C4.19 19.84 3.8 19.68 3.66 19.33C3.52 18.99 3.69 18.6 4.03 18.46C4.07 18.44 5.09 18.04 6.57 18.2C8.1 18.37 9.13 19.25 9.18 19.29C9.46 19.53 9.48 19.96 9.24 20.24C9.11 20.39 8.92 20.47 8.73 20.47ZM5.64 23.59C5.65 23.59 6.08 23.21 6.71 23.07C7.56 22.89 8.15 23.07 8.17 23.08C8.52 23.21 8.9 23.03 9.03 22.68C9.16 22.33 8.98 21.95 8.63 21.82C8.54 21.78 7.68 21.49 6.43 21.76C5.44 21.97 4.81 22.53 4.74 22.6C4.47 22.85 4.45 23.27 4.7 23.54C4.83 23.69 5.01 23.76 5.2 23.76C5.35 23.76 5.52 23.71 5.64 23.59Z" fill="#1D1E1E" fill-opacity="1.000000" fill-rule="nonzero"/>
		<path id="Vector" d="M25.34 20.47C25.15 20.47 24.97 20.39 24.83 20.24C24.59 19.96 24.62 19.53 24.9 19.29C24.94 19.25 25.97 18.37 27.5 18.2C28.99 18.04 30 18.44 30.04 18.46C30.39 18.6 30.55 18.99 30.41 19.34C30.28 19.68 29.89 19.85 29.54 19.71C29.54 19.71 28.78 19.42 27.65 19.54C26.55 19.66 25.79 20.3 25.78 20.3C25.66 20.41 25.5 20.47 25.34 20.47ZM29.37 23.55C29.63 23.27 29.61 22.85 29.33 22.6C29.26 22.53 28.63 21.97 27.65 21.76C26.39 21.49 25.54 21.78 25.44 21.82C25.1 21.94 24.92 22.32 25.04 22.67C25.17 23.02 25.55 23.21 25.9 23.08C25.9 23.08 26.49 22.89 27.36 23.07C28 23.21 28.43 23.59 28.43 23.59C28.56 23.71 28.72 23.76 28.88 23.76C29.06 23.76 29.24 23.69 29.37 23.55Z" fill="#1D1E1E" fill-opacity="1.000000" fill-rule="nonzero"/>
		<path id="Vector" d="M20.65 23.77C20.38 23.52 19.96 23.53 19.7 23.81C19.57 23.95 19.09 24.41 18.49 24.3C18.16 24.24 17.9 24.04 17.72 23.86L17.7 20.15C17.69 19.78 17.39 19.48 17.02 19.49C16.65 19.49 16.35 19.79 16.35 20.16L16.37 23.84C16.2 24.02 15.92 24.24 15.58 24.3C14.99 24.41 14.5 23.95 14.37 23.8C14.11 23.54 13.69 23.52 13.42 23.77C13.15 24.03 13.13 24.45 13.39 24.72C13.61 24.96 14.36 25.66 15.4 25.66C15.54 25.66 15.67 25.65 15.81 25.62C16.32 25.54 16.72 25.3 17.04 25.04C17.41 25.34 17.82 25.55 18.26 25.62C18.4 25.65 18.54 25.66 18.67 25.66C19.72 25.66 20.47 24.96 20.69 24.72C20.94 24.45 20.93 24.03 20.65 23.77Z" fill="#1D1E1E" fill-opacity="1.000000" fill-rule="nonzero"/>
		<path id="Vector" d="M12.49 13.52C12.49 14.36 11.81 15.04 10.96 15.04C10.12 15.04 9.44 14.36 9.44 13.52C9.44 12.67 10.12 11.99 10.96 11.99C11.81 11.99 12.49 12.67 12.49 13.52Z" fill="#1D1E1E" fill-opacity="1.000000" fill-rule="evenodd"/>
		<path id="Vector" d="M25.12 13.52C25.12 14.36 24.43 15.04 23.59 15.04C22.75 15.04 22.06 14.36 22.06 13.52C22.06 12.67 22.75 11.99 23.59 11.99C24.43 11.99 25.12 12.67 25.12 13.52Z" fill="#1D1E1E" fill-opacity="1.000000" fill-rule="evenodd"/>
		<path id="Vector" d="M17.04 21.16C16.14 21.16 14.66 19.31 15.06 18.48C15.41 17.77 16.38 17.58 17.04 17.58C17.69 17.58 18.66 17.77 19.01 18.48C19.41 19.31 17.93 21.16 17.04 21.16Z" fill="#F9D4D4" fill-opacity="1.000000" fill-rule="nonzero"/>
		<g opacity="0.090000">
			<path id="Vector" d="M17.04 21.15C16.59 21.15 15.98 20.68 15.55 20.1C15.82 20.31 16.09 20.44 16.33 20.44C17.19 20.44 18.61 18.7 18.32 17.84C18.61 17.98 18.87 18.18 19.01 18.48C19.41 19.3 17.93 21.15 17.04 21.15Z" fill="#000000" fill-opacity="1.000000" fill-rule="nonzero"/>
		</g>
	</g>
</svg>
