<svg width="56.000000" height="56.000000" viewBox="0 0 56 56" fill="none" xmlns="http://www.w3.org/2000/svg" xmlns:xlink="http://www.w3.org/1999/xlink">
	<desc>
			Created with Pixso.
	</desc>
	<defs>
		<clipPath id="clip2004_244">
			<rect id="shiba 1" rx="-0.500000" width="55.000000" height="55.000000" transform="translate(0.500000 0.500000)" fill="white" fill-opacity="0"/>
		</clipPath>
	</defs>
	<rect id="shiba 1" rx="-0.500000" width="55.000000" height="55.000000" transform="translate(0.500000 0.500000)" fill="#FFFFFF" fill-opacity="0"/>
	<g clip-path="url(#clip2004_244)">
		<path id="Vector" d="M12.44 0L12.44 1.95C12.44 3.85 12.7 5.74 13.22 7.56L14.36 11.56L23.04 2.9L21.57 2.16C18.74 0.74 15.61 0 12.44 0Z" fill="#F7A116" fill-opacity="1.000000" fill-rule="nonzero"/>
		<path id="Vector" d="M38.01 2.18L36.53 2.92L45.2 11.6L46.35 7.61C46.87 5.79 47.14 3.9 47.14 2L47.14 0.04C43.97 0.04 40.85 0.77 38.01 2.18Z" fill="#F7A116" fill-opacity="1.000000" fill-rule="nonzero"/>
		<path id="Vector" d="M14.81 40.53C13.06 40.31 11.51 39.32 10.59 37.82C9.67 36.32 9.48 34.48 10.08 32.82C10.65 31.39 10.54 29.77 9.77 28.43L9.59 28.12C5.33 28.67 2.11 32.25 2.02 36.54C1.93 40.83 4.99 44.55 9.22 45.28C13.45 46 17.58 43.53 18.93 39.46C17.74 40.33 16.27 40.71 14.81 40.53Z" fill="#EE9200" fill-opacity="1.000000" fill-rule="nonzero"/>
		<path id="Vector" d="M48.04 51.13L49.72 43.19C50.26 40.65 49.62 38.01 47.99 36C46.36 33.98 43.91 32.81 41.31 32.8L18.18 32.77C15.59 32.77 13.13 33.93 11.5 35.95C9.86 37.96 9.22 40.6 9.75 43.14L11.41 51.08L10.45 51.08C7.78 51.08 5.62 53.23 5.62 55.89L17.19 55.91L42.25 55.94L53.81 55.96C53.82 53.3 51.66 51.14 49 51.13L48.04 51.13Z" fill="#F7A116" fill-opacity="1.000000" fill-rule="nonzero"/>
		<path id="Vector" d="M54.08 56C54.08 53.33 51.92 51.18 49.26 51.18L48.29 51.18L49.96 43.24C50.65 39.99 49.4 36.64 46.76 34.63C42.1 46.88 30.25 52.98 20.35 56L54.08 56Z" fill="#F58F00" fill-opacity="1.000000" fill-rule="nonzero"/>
		<path id="Vector" d="M47.33 21.3L51.18 21.3C51.18 23.96 49.03 26.12 46.36 26.12L42.51 26.12C42.51 23.45 44.67 21.3 47.33 21.3Z" fill="#348FD9" fill-opacity="1.000000" fill-rule="nonzero"/>
		<path id="Vector" d="M42.51 26.12L46.36 26.12C49.03 26.12 51.18 28.27 51.18 30.93L47.33 30.93C44.67 30.93 42.51 28.78 42.51 26.12Z" fill="#3086CD" fill-opacity="1.000000" fill-rule="nonzero"/>
		<path id="Vector" d="M42.51 20.33L17.45 20.33L17.45 24.2L19.38 56L27.09 56L27.09 41.54L32.87 41.54L32.87 56L40.58 56L42.51 24.2L42.51 20.33Z" fill="#FFB531" fill-opacity="1.000000" fill-rule="nonzero"/>
		<path id="Vector" d="M42.51 21.3L17.45 21.3L17.45 24.2C17.68 28.13 19.77 31.71 23.08 33.84C24.36 34.66 25.68 35.43 27.03 36.15C27.09 36.18 27.15 36.22 27.2 36.25L29.92 37.68L32.81 36.06L35.92 34.33L36.31 34.11C39.91 32.05 42.24 28.33 42.51 24.19L42.51 21.3Z" fill="#348FD9" fill-opacity="1.000000" fill-rule="nonzero"/>
		<path id="Vector" d="M42.51 21.3L17.45 21.3L17.45 24.2C17.68 28.13 19.77 31.71 23.08 33.84C24.36 34.66 25.68 35.43 27.03 36.15C27.09 36.18 27.15 36.22 27.2 36.25L29.92 37.68L32.81 36.06L35.92 34.33L36.31 34.11C39.91 32.05 42.24 28.33 42.51 24.19L42.51 21.3Z" fill="#3086CD" fill-opacity="1.000000" fill-rule="nonzero"/>
		<path id="Vector" d="M34.41 29.01L25.54 29.01C24.67 29.01 23.82 28.71 23.14 28.16L16 22.45C15.09 21.72 14.56 20.61 14.56 19.44L14.56 12.29C14.56 11.27 14.96 10.29 15.69 9.56L21.14 4.11C21.86 3.39 22.84 2.98 23.87 2.98L36.09 2.98C37.12 2.98 38.1 3.39 38.82 4.11L44.27 9.56C44.99 10.29 45.4 11.27 45.4 12.29L45.4 19.44C45.4 20.61 44.87 21.72 43.95 22.45L36.82 28.16C36.14 28.71 35.29 29.01 34.41 29.01Z" fill="#FFB531" fill-opacity="1.000000" fill-rule="nonzero"/>
		<path id="Vector" d="M38.17 13.59C35.15 13.64 32.48 15.56 31.47 18.4L28.48 18.4C27.47 15.56 24.81 13.64 21.79 13.59C18.82 13.64 16.18 15.49 15.14 18.27C14.51 19.85 14.99 21.65 16.32 22.7L23.14 28.16C23.82 28.71 24.67 29.01 25.54 29.01L34.41 29.01C35.29 29.01 36.14 28.71 36.82 28.16L43.64 22.7C44.97 21.65 45.45 19.85 44.83 18.27C43.78 15.49 41.14 13.63 38.17 13.59Z" fill="#FFD896" fill-opacity="1.000000" fill-rule="nonzero"/>
		<path id="Vector" d="M29.01 14.55L30.94 14.55C32.01 14.55 32.87 15.41 32.87 16.48C32.87 17.54 32.01 18.4 30.94 18.4L29.01 18.4C27.95 18.4 27.09 17.54 27.09 16.48C27.09 15.41 27.95 14.55 29.01 14.55Z" fill="#2E3E51" fill-opacity="1.000000" fill-rule="nonzero"/>
		<path id="Vector" d="M32.87 22.26C32.87 23.86 31.58 25.15 29.98 25.15C28.38 25.15 27.09 23.86 27.09 22.26L29.98 21.3L32.87 22.26Z" fill="#E94F4F" fill-opacity="1.000000" fill-rule="nonzero"/>
		<path id="Vector" d="M25.16 11.66C25.16 12.72 24.3 13.59 23.23 13.59C22.17 13.59 21.3 12.72 21.3 11.66C21.3 10.59 22.17 9.73 23.23 9.73C24.3 9.73 25.16 10.59 25.16 11.66Z" fill="#2E3E51" fill-opacity="1.000000" fill-rule="nonzero"/>
		<path id="Vector" d="M38.65 11.66C38.65 12.72 37.79 13.59 36.73 13.59C35.66 13.59 34.8 12.72 34.8 11.66C34.8 10.59 35.66 9.73 36.73 9.73C37.79 9.73 38.65 10.59 38.65 11.66Z" fill="#2E3E51" fill-opacity="1.000000" fill-rule="nonzero"/>
		<path id="Vector" d="M22.27 5.87L24.2 5.87L24.2 7.8L22.27 7.8L22.27 5.87Z" fill="#FFD896" fill-opacity="1.000000" fill-rule="nonzero"/>
		<path id="Vector" d="M35.76 5.87L37.69 5.87L37.69 7.8L35.76 7.8L35.76 5.87Z" fill="#FFD896" fill-opacity="1.000000" fill-rule="nonzero"/>
		<path id="Vector" d="M35.92 18.83L34.71 20.65C34.5 20.98 34.1 21.14 33.72 21.06L30.94 20.51L30.94 18.4L29.01 18.4L29.01 20.51L26.24 21.06C25.85 21.14 25.46 20.98 25.25 20.65L24.03 18.83L22.43 19.9L23.64 21.72C24.29 22.7 25.47 23.18 26.62 22.95L29.98 22.28L33.34 22.95C34.49 23.19 35.67 22.7 36.32 21.72L37.53 19.9L35.92 18.83Z" fill="#2E3E51" fill-opacity="1.000000" fill-rule="nonzero"/>
	</g>
</svg>
