<svg width="20.000000" height="20.000000" viewBox="0 0 20 20" fill="none" xmlns="http://www.w3.org/2000/svg" xmlns:xlink="http://www.w3.org/1999/xlink">
	<desc>
			Created with Pixso.
	</desc>
	<defs>
		<clipPath id="clip2081_68">
			<rect id="Frame" rx="-0.500000" width="19.000000" height="19.000000" transform="translate(0.500000 0.500000)" fill="white" fill-opacity="0"/>
		</clipPath>
	</defs>
	<rect id="Frame" rx="-0.500000" width="19.000000" height="19.000000" transform="translate(0.500000 0.500000)" fill="#FFFFFF" fill-opacity="0"/>
	<g clip-path="url(#clip2081_68)">
		<path id="Vector" d="M5.52 8.54C6.19 8.54 6.8 8.17 7.22 7.64C7.86 6.81 8.67 6.13 9.6 5.64C10.2 5.32 10.72 4.84 10.98 4.21C11.15 3.76 11.25 3.29 11.25 2.81L11.25 2.29C11.25 2.12 11.31 1.96 11.43 1.84C11.55 1.73 11.7 1.66 11.87 1.66C12.37 1.66 12.84 1.86 13.2 2.21C13.55 2.56 13.75 3.04 13.75 3.54C13.75 4.5 13.53 5.41 13.14 6.22C12.92 6.68 13.23 7.29 13.75 7.29L16.35 7.29C17.21 7.29 17.97 7.87 18.06 8.72C18.1 9.07 18.12 9.42 18.12 9.79C18.12 12.07 17.34 14.28 15.91 16.05C15.59 16.46 15.09 16.66 14.58 16.66L11.23 16.66C10.83 16.66 10.43 16.6 10.04 16.47L7.45 15.6C7.07 15.48 6.66 15.41 6.26 15.41L4.92 15.41C4.98 15.58 5.06 15.75 5.14 15.91C5.3 16.25 5.08 16.66 4.7 16.66L3.95 16.66C3.21 16.66 2.52 16.23 2.3 15.52C2.02 14.57 1.87 13.59 1.87 12.6C1.87 11.31 2.12 10.07 2.56 8.93C2.82 8.29 3.47 7.91 4.16 7.91L5.04 7.91C5.43 7.91 5.66 8.38 5.46 8.71C4.74 9.88 4.37 11.23 4.37 12.6C4.37 13.59 4.56 14.54 4.92 15.41L4.92 15.41M13.75 7.29L11.87 7.29" stroke="#131313" stroke-opacity="0.600000" stroke-width="1.500000" stroke-linejoin="round" stroke-linecap="round"/>
	</g>
</svg>
