<svg width="56.000000" height="56.000000" viewBox="0 0 56 56" fill="none" xmlns="http://www.w3.org/2000/svg" xmlns:xlink="http://www.w3.org/1999/xlink">
	<desc>
			Created with Pixso.
	</desc>
	<defs>
		<clipPath id="clip2004_305">
			<rect id="rabbit 1" rx="-0.500000" width="55.000000" height="55.000000" transform="translate(0.500000 0.500000)" fill="white" fill-opacity="0"/>
		</clipPath>
	</defs>
	<rect id="rabbit 1" rx="-0.500000" width="55.000000" height="55.000000" transform="translate(0.500000 0.500000)" fill="#FFFFFF" fill-opacity="0"/>
	<g clip-path="url(#clip2004_305)">
		<path id="Vector" d="M14.79 9.13L18.24 14.91L21.95 17.43L22.41 16.97L19.67 8.96L17.83 4.96L16.33 4.35L14.3 4.54L13.63 6.53L13.58 6.72L14.79 9.13Z" fill="#FF9BA1" fill-opacity="1.000000" fill-rule="nonzero"/>
		<path id="Vector" d="M21.89 17.03C17.86 13.57 15.29 9.3 13.84 6.28L13.84 5.91L13.63 6.53L12.95 9.2L12.95 10.31C14.14 12.77 16.23 16.25 19.52 19.07C19.85 19.36 20.27 19.07 20.27 19.07L22.2 17.18C22.1 17.16 21.99 17.12 21.89 17.03Z" fill="#FF7F87" fill-opacity="1.000000" fill-rule="nonzero"/>
		<path id="Vector" d="M42.27 5.95L41.43 4.51L39.4 4.35L37.54 6.26L34.95 11.78L33.69 17.09L36.1 19.07L36.47 19.07C39.76 16.25 41.85 12.77 43.04 10.31L43.4 9.3L42.27 5.95Z" fill="#FF9BA1" fill-opacity="1.000000" fill-rule="nonzero"/>
		<path id="Vector" d="M41.72 6.47C41.87 6.23 42.02 6 42.18 5.79L41.43 4.51L39.4 4.35L37.54 6.26L34.95 11.78L33.69 17.09L36.1 19.07L36.47 19.07C36.62 18.95 36.76 18.82 36.9 18.69C38.1 14.99 40.14 9.09 41.72 6.47Z" fill="#FF7F87" fill-opacity="1.000000" fill-rule="nonzero"/>
		<path id="Vector" d="M44.01 0.34L42.44 0.34L39.31 3.72L38.54 5.07L39.02 5.55C39.11 5.46 39.2 5.38 39.29 5.3C40.13 4.59 41.43 5.04 41.67 6.11C42.49 9.71 44.32 14.19 48.38 17.52C49.5 18.44 51.2 17.72 51.33 16.28C51.78 11.44 51.58 2.22 44.01 0.34Z" fill="#E39B74" fill-opacity="1.000000" fill-rule="nonzero"/>
		<path id="Vector" d="M39.02 5.55C40.25 3.14 41.88 1.11 44.01 0.34C43.12 0.12 42.14 0 41.04 0C34.64 0 31.95 10.38 31.02 15.39L31.39 16.37L33.3 17.19L34.14 16.97C34.97 14.35 36.77 8.94 38.12 6.7C38.4 6.23 38.71 5.86 39.02 5.55Z" fill="#DD8858" fill-opacity="1.000000" fill-rule="nonzero"/>
		<path id="Vector" d="M16.89 0.34L15.24 0.34L10.65 3.64C10.65 3.64 9.77 7.47 9.43 8.15C9.08 8.82 9.04 12.54 9 12.92C8.97 13.29 9.52 15.7 9.52 15.7C12.27 12.67 13.64 9.08 14.32 6.11C14.56 5.04 15.86 4.59 16.7 5.3C17.11 5.65 17.51 6.1 17.87 6.7C19.22 8.94 21.02 14.35 21.85 16.97L22.65 16.97L24.56 16.01L24.97 15.39C24.14 10.91 21.91 2.17 16.89 0.34Z" fill="#E39B74" fill-opacity="1.000000" fill-rule="nonzero"/>
		<path id="Vector" d="M16.89 0.34C16.29 0.12 15.64 0 14.95 0C4.47 0 4.16 10.87 4.66 16.28C4.79 17.72 6.49 18.44 7.61 17.52C8.31 16.94 8.94 16.33 9.52 15.7C9.15 10.74 9.61 2.14 16.89 0.34Z" fill="#DD8858" fill-opacity="1.000000" fill-rule="nonzero"/>
		<path id="Vector" d="M30.83 15.33L28.55 15.33L23.88 19.2L21.4 24.22C21.4 24.22 19.43 30.98 18.88 32.36L25.77 35.48L30.64 35.48L39.48 31.37L41.43 30.09C40.2 22.68 36.06 16.89 30.83 15.33Z" fill="#EAAE8E" fill-opacity="1.000000" fill-rule="nonzero"/>
		<path id="Vector" d="M22.52 29.85C22.04 29.85 21.65 29.46 21.65 28.98L21.65 26.52C21.65 26.04 22.04 25.66 22.52 25.66C23 25.66 23.39 26.04 23.39 26.52L23.39 28.98C23.39 29.46 23 29.85 22.52 29.85Z" fill="#544E55" fill-opacity="1.000000" fill-rule="nonzero"/>
		<path id="Vector" d="M33.47 29.85C32.99 29.85 32.6 29.46 32.6 28.98L32.6 26.52C32.6 26.04 32.99 25.66 33.47 25.66C33.95 25.66 34.34 26.04 34.34 26.52L34.34 28.98C34.34 29.46 33.95 29.85 33.47 29.85Z" fill="#544E55" fill-opacity="1.000000" fill-rule="nonzero"/>
		<path id="Vector" d="M16.23 31.16C17.3 30.35 18.4 29.52 18.4 29.52L20.33 29.52C21.67 22.38 25.74 16.85 30.83 15.33C29.91 15.05 28.97 14.91 28 14.91C21.47 14.91 16.01 21.38 14.56 30.09L15.31 30.74L16.23 31.16Z" fill="#E39B74" fill-opacity="1.000000" fill-rule="nonzero"/>
		<path id="Vector" d="M43.45 53.31C41.61 49.26 39.35 45.93 36.8 43.59L35.7 43.16L34.17 43.59C34.17 43.59 30.86 45.74 30.75 45.74C30.64 45.74 25 45.63 25 45.63L22.41 44.51L18.1 50.1L16.86 53.92L17.48 55.47C17.48 55.47 17.84 55.71 18.27 56L22.33 56L23.61 55.17L32.44 55.17L33.66 56L41.73 56C43.11 56 44.02 54.57 43.45 53.31Z" fill="#E39B74" fill-opacity="1.000000" fill-rule="nonzero"/>
		<path id="Vector" d="M17.59 53.31C19.13 49.9 20.98 47.01 23.05 44.78L20.29 43.59L19.19 43.59C16.64 45.93 14.38 49.26 12.54 53.31C11.97 54.57 12.88 56 14.26 56L19.31 56C17.93 56 17.02 54.57 17.59 53.31Z" fill="#DD8858" fill-opacity="1.000000" fill-rule="nonzero"/>
		<path id="Vector" d="M36.91 29.19C34.93 29.19 33.1 29.67 31.6 30.5L30.86 31.11L25.14 31.11L24.26 30.5C23.02 29.81 21.55 29.36 19.96 29.23L18.1 29.64L15.48 32.37C15.48 32.37 14.53 36.51 14.56 36.6C14.58 36.68 16.64 40.6 17.26 41.13C17.88 41.67 22.36 43.39 22.36 43.39C22.36 43.39 25.81 44.54 25.77 44.74C25.74 44.94 27.99 46.12 27.99 46.12L30.1 46.36C31.69 46.07 33.13 45.49 34.31 44.67C35.37 43.95 36.6 43.51 37.88 43.41C42.66 43.04 46.07 39.81 46.07 36.31C46.07 32.38 41.97 29.19 36.91 29.19Z" fill="#FEE6C1" fill-opacity="1.000000" fill-rule="nonzero"/>
		<path id="Vector" d="M25.82 44.24C24.91 43.43 23.82 42.91 22.66 42.72C18.39 42.03 15.46 38.59 15.72 35C15.91 32.47 17.58 30.35 19.96 29.23C19.63 29.2 19.3 29.18 18.96 29.18C13.9 29.18 9.79 32.38 9.79 36.31C9.79 39.86 13.26 43.03 17.98 43.41C19.26 43.51 20.49 43.94 21.55 44.67C23.25 45.84 25.49 46.55 27.93 46.55C28.68 46.55 29.41 46.48 30.1 46.36C28.45 46.01 26.97 45.25 25.82 44.24Z" fill="#FCD79B" fill-opacity="1.000000" fill-rule="nonzero"/>
		<path id="Vector" d="M4.04 37.86C3.73 37.51 3.77 36.97 4.12 36.66C9.87 31.62 17.73 32.97 18.06 33.03C18.52 33.11 18.82 33.55 18.74 34.01C18.66 34.47 18.22 34.77 17.76 34.69C17.68 34.68 10.36 33.44 5.23 37.94C4.88 38.24 4.35 38.21 4.04 37.86Z" fill="#FCCC80" fill-opacity="1.000000" fill-rule="nonzero"/>
		<path id="Vector" d="M8.89 43.02C8.5 42.76 8.39 42.24 8.64 41.85C11.67 37.26 17.16 36.17 17.39 36.12C17.85 36.03 18.29 36.34 18.38 36.79C18.47 37.25 18.17 37.69 17.71 37.78C17.66 37.79 12.68 38.8 10.06 42.78C9.8 43.17 9.28 43.28 8.89 43.02Z" fill="#FCCC80" fill-opacity="1.000000" fill-rule="nonzero"/>
		<path id="Vector" d="M50.76 37.94C45.61 33.43 38.3 34.68 38.23 34.69C37.77 34.77 37.33 34.47 37.25 34.01C37.17 33.55 37.47 33.11 37.93 33.03C38.26 32.97 46.12 31.62 51.87 36.67C52.22 36.97 52.26 37.51 51.95 37.86C51.64 38.21 51.11 38.24 50.76 37.94Z" fill="#FCCC80" fill-opacity="1.000000" fill-rule="nonzero"/>
		<path id="Vector" d="M45.93 42.78C43.3 38.78 38.33 37.79 38.28 37.78C37.82 37.7 37.52 37.25 37.61 36.79C37.7 36.34 38.14 36.04 38.6 36.12C38.83 36.17 44.32 37.26 47.35 41.85C47.6 42.24 47.49 42.76 47.1 43.02C46.71 43.28 46.19 43.17 45.93 42.78Z" fill="#FCCC80" fill-opacity="1.000000" fill-rule="nonzero"/>
		<path id="Vector" d="M28 36.14C28 36.14 27.6 38.38 25.78 39.06L25.94 41.16C25.98 41.62 26.36 41.97 26.81 41.97L29.18 41.97C29.63 41.97 30.01 41.62 30.05 41.16L30.21 39.06C28.4 38.38 28 36.14 28 36.14Z" fill="#FEF0DB" fill-opacity="1.000000" fill-rule="nonzero"/>
		<path id="Vector" d="M35.08 35.71C34.64 35.58 34.17 35.84 34.04 36.29C34.02 36.38 33.41 38.4 31.33 38.4C29.46 38.4 28.93 36.44 28.84 36.05L28.84 33.44C28.84 32.98 28.46 32.6 28 32.6C27.53 32.6 27.15 32.98 27.15 33.44L27.15 36.06C27.06 36.45 26.54 38.4 24.66 38.4C22.58 38.4 21.97 36.39 21.95 36.29C21.82 35.84 21.36 35.58 20.91 35.71C20.46 35.83 20.2 36.29 20.32 36.74C20.64 37.9 21.96 40.09 24.66 40.09C26.27 40.09 27.34 39.25 28 38.28C28.65 39.25 29.72 40.09 31.33 40.09C34.03 40.09 35.35 37.9 35.67 36.74C35.79 36.3 35.53 35.83 35.08 35.71Z" fill="#FCCC80" fill-opacity="1.000000" fill-rule="nonzero"/>
		<path id="Vector" d="M26.97 31.11L28.57 34.22L29.69 34.22C30.91 33.45 31.74 32 31.74 30.97C31.74 29.56 30.18 29.46 28.21 29.45L26.97 31.11Z" fill="#FF9BA1" fill-opacity="1.000000" fill-rule="nonzero"/>
		<path id="Vector" d="M27.65 30.97C27.65 29.94 28.48 29.61 29.69 29.5C29.18 29.46 28.61 29.45 28 29.45C25.93 29.45 24.25 29.51 24.25 30.97C24.25 32.43 25.93 34.74 28 34.74C28.61 34.74 29.18 34.54 29.69 34.22C28.48 33.45 27.65 32 27.65 30.97Z" fill="#FF636E" fill-opacity="1.000000" fill-rule="nonzero"/>
		<path id="Vector" d="M30.52 51.16L29.96 51.16L27.45 54.15L26.92 55.36L27.38 55.99L33.66 55.99C32.73 53.81 31.67 52.16 30.52 51.16Z" fill="#FEF0DB" fill-opacity="1.000000" fill-rule="nonzero"/>
		<path id="Vector" d="M30.52 51.16C29.72 50.47 28.87 50.1 28 50.1C25.87 50.1 23.91 52.29 22.33 56L27.38 56C28.31 53.81 29.37 52.16 30.52 51.16Z" fill="#FEE6C1" fill-opacity="1.000000" fill-rule="nonzero"/>
	</g>
</svg>
